<?xml version="1.0" standalone="no"?>
<!DOCTYPE svg PUBLIC "-//W3C//DTD SVG 20010904//EN"
        "http://www.w3.org/TR/2001/REC-SVG-20010904/DTD/svg10.dtd">
<svg version="1.0" xmlns="http://www.w3.org/2000/svg"
     width="399.000000pt" height="439.000000pt" viewBox="0 0 399.000000 439.000000"
     preserveAspectRatio="xMidYMid meet">
    <rect width="100%" height="100%" fill="white"/>
    <g transform="translate(0.000000,439.000000) scale(0.100000,-0.100000)"
       fill="#ed1b24">
        <path d="M0 2195 l0 -2195 1995 0 1995 0 0 2195 0 2195 -1995 0 -1995 0 0
-2195z m3270 1405 l0 -240 -915 0 -915 0 0 -320 0 -320 850 0 850 0 0 -240 0
-240 -850 0 -850 0 0 -395 0 -395 940 0 940 0 0 -240 0 -240 -1280 0 -1280 0
0 1435 0 1435 1255 0 1255 0 0 -240z m-1583 -2831 c51 -25 106 -105 83 -119
-28 -17 -84 -22 -89 -8 -9 27 -60 68 -86 68 -72 0 -115 -57 -115 -155 0 -72
20 -119 60 -140 59 -31 118 -2 143 68 7 19 15 18 75 -4 18 -7 22 -14 17 -32
-11 -36 -59 -91 -96 -109 -47 -25 -132 -23 -185 3 -77 37 -114 108 -114 219 0
140 81 227 214 229 31 1 66 -7 93 -20z m1290 0 c51 -25 106 -105 83 -119 -24
-15 -84 -22 -88 -11 -9 28 -47 61 -76 67 -76 14 -126 -46 -126 -151 0 -72 20
-119 60 -140 58 -30 115 -6 139 58 11 30 15 30 79 6 28 -11 23 -37 -17 -89
-42 -54 -84 -72 -162 -68 -88 5 -137 36 -174 113 -25 50 -27 64 -23 133 7 115
45 174 133 209 49 19 124 15 172 -8z m-2127 -29 l0 -40 -125 0 -125 0 0 -50 0
-50 115 0 115 0 0 -40 0 -40 -115 0 -115 0 0 -60 0 -60 130 0 130 0 0 -40 0
-40 -180 0 -180 0 0 230 0 230 175 0 175 0 0 -40z m272 -110 l88 -145 0 148 0
147 45 0 45 0 0 -230 0 -230 -47 0 -48 0 -87 142 -88 142 0 -142 0 -142 -50 0
-50 0 0 231 0 230 52 -3 51 -3 89 -145z m1078 110 l0 -40 -65 0 -65 0 0 -190
0 -190 -50 0 -50 0 0 190 0 190 -70 0 -70 0 0 40 0 40 185 0 185 0 0 -40z
m400 0 l0 -40 -125 0 -125 0 0 -50 0 -50 115 0 115 0 0 -40 0 -40 -115 0 -115
0 0 -60 0 -60 130 0 130 0 0 -40 0 -40 -180 0 -180 0 0 230 0 230 175 0 175 0
0 -40z m640 -50 l0 -90 91 0 90 0 -1 68 c-3 120 -6 112 45 112 l45 0 0 -230 0
-230 -45 0 -45 0 -1 83 c-1 45 -1 90 0 100 2 15 -8 17 -88 17 l-91 0 0 -100 0
-100 -50 0 -50 0 0 230 0 230 50 0 50 0 0 -90z"/>
    </g>
</svg>
